<svg xmlns="http://www.w3.org/2000/svg" viewBox="0 0 150 130" fill="none">
  <defs>
    <linearGradient id="kb-decor-mint-grad" x1="20" y1="10" x2="130" y2="120" gradientUnits="userSpaceOnUse">
      <stop offset="0%" stop-color="#C5EDAB"/>
      <stop offset="45%" stop-color="#6BB865"/>
      <stop offset="80%" stop-color="#317D44"/>
      <stop offset="100%" stop-color="#1B4D27"/>
    </linearGradient>
    <filter id="kb-decor-mint-shadow" x="-15%" y="-20%" width="140%" height="150%">
      <feDropShadow dx="1" dy="4" stdDeviation="3.5" flood-color="#143D1F" flood-opacity="0.22"/>
    </filter>
  </defs>
  <g filter="url(#kb-decor-mint-shadow)">
    <!-- Stem Branch -->
    <path d="M71 112C48 92 37 66 36 31" stroke="#3F7034" stroke-width="4.5" stroke-linecap="round"/>
    <path d="M71 112C48 92 37 66 36 31" stroke="#87D477" stroke-width="1.5" stroke-linecap="round" opacity="0.65"/>

    <!-- Left Serrated Mint Leaf -->
    <path d="M49 72C27 72 11 59 8 39c5 1 10-3 13-8 3 3 8 2 11-2 2 5 7 6 12 4 0 5 4 9 9 10-2 4 1 9 6 11-3 7-6 13-10 18Z" fill="url(#kb-decor-mint-grad)"/>
    <path d="M42 65 17 42M31 55l1-15M31 55H18M42 65l10-14" stroke="#EEFAF0" stroke-width="1.5" stroke-linecap="round" opacity="0.7"/>

    <!-- Top Serrated Mint Leaf -->
    <path d="M60 47C56 27 66 10 84 4c0 4 5 7 9 6-1 5 2 9 7 11-4 4-3 9 1 13-5 2-7 7-5 12-5 0-8 4-9 9-10-1-18-3-27-8Z" fill="url(#kb-decor-mint-grad)"/>
    <path d="M64 43 86 13M73 31l14-1M73 31l1-13M64 43l18 4" stroke="#EEFAF0" stroke-width="1.5" stroke-linecap="round" opacity="0.7"/>

    <!-- Right Serrated Mint Leaf -->
    <path d="M70 100c4-25 22-43 48-49 0 5 4 9 9 9-2 5 1 10 6 12-5 3-5 9-2 13-6 1-9 6-8 11-6-1-10 3-12 8-16 2-29 0-41-4Z" fill="url(#kb-decor-mint-grad)"/>
    <path d="m76 95 42-35M92 82l21 1M92 82l5-18M76 95l25 4" stroke="#EEFAF0" stroke-width="1.6" stroke-linecap="round" opacity="0.7"/>
  </g>
</svg>
