<svg xmlns="http://www.w3.org/2000/svg" viewBox="0 0 150 130" fill="none">
  <defs>
    <linearGradient id="mn1" x1="20" y1="20" x2="120" y2="110" gradientUnits="userSpaceOnUse">
      <stop stop-color="#9BD186"/>
      <stop offset=".5" stop-color="#579B44"/>
      <stop offset="1" stop-color="#2E6B2A"/>
    </linearGradient>
  </defs>
  <path d="M72 122c-4-18-4-38 0-56" stroke="#3B7A32" stroke-width="3" stroke-linecap="round"/>
  <g fill="url(#mn1)">
    <path d="M72 70C56 62 44 46 44 30c0-9 4-17 11-21 12 6 21 19 24 34 2 10 0 20-7 27Z"/>
    <path d="M72 70c16-8 28-24 28-40 0-9-4-17-11-21-12 6-21 19-24 34-2 10 0 20 7 27Z"/>
    <path d="M72 104c-16-4-30-16-35-30-3-8-2-16 2-22 13 3 25 13 31 26 4 8 5 18 2 26Z"/>
    <path d="M72 104c16-4 30-16 35-30 3-8 2-16-2-22-13 3-25 13-31 26-4 8-5 18-2 26Z"/>
  </g>
  <path d="M72 66c-3-14-1-27 4-38M72 66c3-14 1-27-4-38M72 100c-5-11-13-20-23-25M72 100c5-11 13-20 23-25" stroke="#2A5C26" stroke-width="1.4" stroke-linecap="round" opacity=".32"/>
</svg>
